<?xml version="1.0" encoding="utf-8"?>
<!-- Generator: Adobe Illustrator 17.0.0, SVG Export Plug-In . SVG Version: 6.00 Build 0)  -->
<!DOCTYPE svg PUBLIC "-//W3C//DTD SVG 1.1//EN" "http://www.w3.org/Graphics/SVG/1.1/DTD/svg11.dtd">
<svg version="1.1" id="Layer_1" xmlns="http://www.w3.org/2000/svg" xmlns:xlink="http://www.w3.org/1999/xlink" x="0px" y="0px"
	 width="886.195px" height="192.608px" viewBox="0 0 886.195 192.608" enable-background="new 0 0 886.195 192.608"
	 xml:space="preserve">
<g>
	<path fill="#666666" d="M192.116,107.375c0-26.232-11.849-49.686-30.494-65.316c12.402,14.812,19.886,33.886,19.886,54.688
		c0,16.279-4.547,31.482-12.454,44.423c-1.956-0.649-4.035-0.976-6.185-0.976c-11.214,0-20.302,9.068-20.302,20.269
		c0,2.484,0.461,4.861,1.273,7.032c-13.578,9.12-29.942,14.473-47.515,14.473c-20.834,0-39.922-7.484-54.702-19.892
		c15.637,18.646,39.083,30.532,65.296,30.532c17.307,0,33.373-5.158,46.776-14.018c2.767,1.389,5.867,2.208,9.173,2.208
		c11.206,0,20.289-9.096,20.289-20.336c0-3.624-0.995-7.067-2.703-10.042C187.875,137.777,192.116,123.083,192.116,107.375"/>
	<g>
		<path fill="#666666" d="M192.116,107.375c0-26.232-11.849-49.686-30.494-65.316c12.402,14.812,19.886,33.886,19.886,54.688
			c0,16.279-4.547,31.482-12.454,44.423c-1.956-0.649-4.035-0.976-6.185-0.976c-11.214,0-20.302,9.068-20.302,20.269
			c0,2.484,0.461,4.861,1.273,7.032c-13.578,9.12-29.942,14.473-47.515,14.473c-20.834,0-39.922-7.484-54.702-19.892
			c15.637,18.646,39.083,30.532,65.296,30.532c17.307,0,33.373-5.158,46.776-14.018c2.767,1.389,5.867,2.208,9.173,2.208
			c11.206,0,20.289-9.096,20.289-20.336c0-3.624-0.995-7.067-2.703-10.042C187.875,137.777,192.116,123.083,192.116,107.375
			L192.116,107.375z"/>
	</g>
	<path fill="#666666" d="M85.222,0C38.174,0,0,38.147,0,85.209c0,25.375,11.128,48.191,28.741,63.77
		C16.969,134.388,9.927,115.807,9.927,95.59c0-15.163,3.957-29.404,10.927-41.747c-1.539-2.975-2.449-6.341-2.449-9.952
		c0-11.993,9.731-21.698,21.731-21.698c3.105,0,6.074,0.662,8.757,1.845c13.318-8.627,29.189-13.656,46.224-13.656
		c21.678,0,41.421,8.094,56.462,21.426C135.979,12.408,112.04,0,85.222,0"/>
	<g>
		<path fill="#666666" d="M85.222,0C31.693,0,0,31.47,0,85.209c0,25.375,11.128,48.191,28.741,63.77
			C16.969,134.388,9.927,115.807,9.927,95.59c0-15.163,3.957-29.404,10.927-41.747c-1.539-2.975-2.449-6.341-2.449-9.952
			c0-11.993,9.731-21.698,21.731-21.698c3.105,0,6.074,0.662,8.757,1.845c13.318-8.627,29.189-13.656,46.224-13.656
			c21.678,0,41.421,8.094,56.462,21.426C135.979,12.408,112.04,0,85.222,0L85.222,0z"/>
	</g>
	<path fill="#666666" d="M155.431,37.407c-13.728-9.459-30.346-14.995-48.263-14.995c-17.248,0-33.295,5.146-46.704,13.955
		c0.89,2.339,1.376,4.887,1.376,7.523c0,12.006-9.699,21.724-21.704,21.724c-2.268,0-4.443-0.351-6.504-0.987
		c-7.419,12.617-11.661,27.285-11.661,42.995c0,17.943,5.522,34.549,14.981,48.295c13.721,9.42,30.339,14.969,48.269,14.969
		c47.041,0,85.196-38.161,85.196-85.235C170.418,67.746,164.85,51.141,155.431,37.407"/>
	<path fill="#666666" d="M155.431,37.407c-13.728-9.459-30.346-14.995-48.263-14.995c-17.248,0-33.295,5.146-46.704,13.955
		c0.89,2.339,1.376,4.887,1.376,7.523c0,12.006-9.699,21.724-21.704,21.724c-2.268,0-4.443-0.351-6.504-0.987
		c-7.419,12.617-11.661,27.285-11.661,42.995c0,17.943,5.522,34.549,14.981,48.295c13.721,9.42,30.339,14.969,48.269,14.969
		c47.041,0,85.196-38.161,85.196-85.235C170.418,67.746,164.85,51.141,155.431,37.407L155.431,37.407z"/>
	<path fill="#666666" d="M305,78.387c-4.977-3.274-9.622-4.639-12.89-4.639c-3.586,0-5.853,1.677-5.853,4.054
		c0,1.989,2.975,4.365,10.804,8.913c7.335,4.874,10.011,7.927,10.011,12.488c0,7.847-6.243,13.096-14.682,13.096
		c-5.445,0-9.707-1.092-15.442-4.066v-9.524c5.736,3.964,10.986,5.847,14.559,5.847c3.573-0.195,6.548-1.883,6.548-5.054
		c0-6.133-20.814-9.406-20.814-21.413c0-7.522,5.736-12.084,14.669-12.084c4.163,0,8.439,1.184,13.09,3.665V78.387"/>
	<path fill="#666666" d="M328.57,66.901h14.071v7.926H328.57v22.804c0,5.236,3.781,6.729,6.352,6.729
		c3.178,0,6.419-1.077,9.993-3.273v8.238c-3.054,1.688-7.796,2.975-10.681,2.975c-9.614,0-14.481-5.937-14.481-13.979V74.827h-7.724
		V73.84l16.541-16.163V66.901"/>
	<path fill="#666666" d="M383.999,78.503c-5.074-3.391-8.452-4.365-12.311-4.365c-8.017,0-13.578,6.043-13.578,15.047
		c0,9.226,5.951,14.799,15.079,14.799c3.768,0,7.315-1.014,11.791-2.988v8.731c-2.988,1.39-8.614,2.572-13.291,2.572
		c-13.279,0-22.589-9.225-22.589-22.309c0-14.669,8.511-23.986,22.011-23.986c5.158,0,8.614,1.184,12.889,3.093V78.503"/>
	<polyline fill="#666666" points="404.196,111.415 395.387,111.415 395.387,43.812 404.196,43.812 404.196,111.415 	"/>
	<path fill="#666666" d="M436.725,89.392c-7.556,2.585-14.058,5.173-14.058,10.421c0,3.676,2.65,6.224,6.314,6.224
		c2.794,0,5.347-1.377,7.744-3.65V89.392L436.725,89.392z M451.887,108.829c-4.066,2.652-5.742,3.47-8.529,3.47
		c-3.845,0-5.958-1.39-6.729-4.561c-3.899,3.067-7.947,4.561-12.012,4.561c-6.529,0-10.902-5.17-10.902-10.914
		c0-8.809,8.037-11.486,15.162-14.059l7.849-2.792v-2.367c0-5.561-2.676-7.848-8.044-7.848c-4.852,0-9.796,2.287-14.071,7.328
		v-9.601c3.477-4.081,8.336-6.043,14.767-6.043c9.024,0,16.162,4.562,16.162,14.671v22.905c0,1.677,0.605,2.248,1.672,2.248
		c0.916,0,2.676-0.858,4.676-2.34V108.829"/>
	<path fill="#666666" d="M469.222,111.415h-8.825V66.901h8.825V111.415L469.222,111.415z M464.868,58.676
		c-2.898,0-5.265-2.376-5.265-5.261c0-2.873,2.367-5.25,5.265-5.25c2.872,0,5.248,2.377,5.248,5.25
		C470.116,56.3,467.74,58.676,464.868,58.676"/>
	<path fill="#666666" d="M491.32,66.901v10.212h0.196c4.47-7.835,8.743-11.109,12.89-11.109c3.56,0,6.938,1.663,10.627,5.146
		l-4.676,7.639c-2.678-2.585-6.16-4.339-8.213-4.339c-6.054,0-10.824,6.042-10.824,13.668v23.297h-8.795V66.901H491.32"/>
	<path fill="#666666" d="M575.062,78.387c-4.937-3.274-9.613-4.639-12.889-4.639c-3.561,0-5.82,1.677-5.82,4.054
		c0,1.989,2.988,4.365,10.81,8.913c7.343,4.874,10.005,7.927,10.005,12.488c0,7.847-6.249,13.096-14.709,13.096
		c-5.456,0-9.68-1.092-15.437-4.066v-9.524c5.757,3.964,11.007,5.847,14.607,5.847c3.534-0.195,6.548-1.883,6.548-5.054
		c0-6.133-20.854-9.406-20.854-21.413c0-7.522,5.781-12.084,14.669-12.084c4.156,0,8.446,1.184,13.07,3.665V78.387"/>
	<path fill="#666666" d="M616.615,111.415v-5.652c-3.691,3.964-8.811,6.536-13.202,6.536c-8.991,0-15.333-6.471-15.333-17.734
		V66.901h8.81v28.247c0,6.236,3.053,9.821,9.123,9.821c3.948,0,7.691-2.169,10.603-6.262V66.901h8.822v44.514H616.615"/>
	<path fill="#666666" d="M646.654,102.386c2.677,1.274,5.521,1.974,8.303,1.974c8.25,0,14.188-6.34,14.188-14.968
		c0-9.211-4.859-14.564-14.462-14.564h-8.029V102.386L646.654,102.386z M646.654,134.192h-8.835V66.901h15.253
		c16.242,0,25.103,7.926,25.103,22.595c0,13.371-9.432,22.803-22.634,22.803c-2.871,0-5.561-0.597-8.887-1.988V134.192"/>
	<path fill="#666666" d="M717.194,84.638c-0.287-6.731-4.146-10.994-10.41-10.994c-6.729,0-10.809,3.95-11.979,10.994H717.194
		L717.194,84.638z M725.107,107.05c-5.327,3.573-10.175,5.249-17.697,5.249c-13.876,0-21.621-11.395-21.621-23.698
		c0-13.488,8.523-22.597,20.789-22.597c11.825,0,19.332,8.03,19.332,24.479h-31.311c1.377,8.823,6.443,13.383,14.968,13.383
		c5.366,0,10.42-1.987,15.541-5.34V107.05"/>
	<path fill="#666666" d="M745.844,66.901v10.212h0.234c4.417-7.835,8.705-11.109,12.861-11.109c3.575,0,6.939,1.663,10.578,5.146
		l-4.612,7.639c-2.691-2.585-6.146-4.339-8.265-4.339c-6.016,0-10.797,6.042-10.797,13.668v23.297h-8.834V66.901H745.844"/>
	<path fill="#666666" d="M784.721,111.415h-8.837V66.901h8.837V111.415L784.721,111.415z M780.326,58.676
		c-2.857,0-5.25-2.376-5.25-5.261c0-2.873,2.393-5.25,5.25-5.25c2.898,0,5.25,2.377,5.25,5.25
		C785.576,56.3,783.225,58.676,780.326,58.676"/>
	<path fill="#666666" d="M804.234,88.691c0,9.419,5.847,15.668,14.371,15.668c9.289,0,15.176-5.949,15.176-15.553
		c0-8.626-6.368-14.89-15.176-14.89C810.29,73.917,804.234,80.181,804.234,88.691L804.234,88.691z M842.772,88.691
		c0,14.109-9.797,23.607-24.065,23.607c-13.68,0-23.477-9.913-23.477-23.607c0-12.773,10.173-22.688,23.477-22.688
		C832.688,66.004,842.772,75.503,842.772,88.691"/>
	<path fill="#666666" d="M862.522,66.901v10.212h0.194c4.457-7.835,8.716-11.109,12.876-11.109c3.561,0,6.951,1.663,10.603,5.146
		l-4.653,7.639c-2.675-2.585-6.13-4.339-8.235-4.339c-6.043,0-10.784,6.042-10.784,13.668v23.297H853.7V66.901H862.522"/>
	<path fill="#666666" d="M292.177,148.563c-2.08-1.3-3.54-1.741-5.542-1.741c-4.378,0-7.497,3.196-7.497,7.691
		c0,4.588,3.384,8.018,7.919,8.018c1.917,0,3.145-0.43,5.12-1.729V148.563L292.177,148.563z M294.184,164.142h-2.007v-1.521
		c-2.034,1.404-3.471,1.871-5.614,1.871c-5.392,0-9.557-4.302-9.557-9.835c0-5.679,4.035-9.838,9.557-9.838
		c1.937,0,3.288,0.404,5.614,1.521V135.4h2.007V164.142"/>
	<path fill="#666666" d="M321.521,152.318c-0.695-3.717-2.729-5.496-5.969-5.496c-3.119,0-5.568,2.04-6.27,5.496H321.521
		L321.521,152.318z M309.002,153.981c-0.571,4.846,3.255,8.55,7.549,8.55c2.52,0,4.6-0.846,7.048-2.846v2.299
		c-2.241,1.715-4.567,2.508-7.302,2.508c-5.483,0-9.439-4.197-9.439-10.068c0-5.562,3.676-9.605,8.693-9.605
		c4.046,0,8.36,2.834,8.36,9.162H309.002"/>
	<polyline fill="#666666" points="343.661,164.492 342.395,164.492 333.8,145.224 335.853,145.224 342.946,161.115 349.781,145.224 
		351.776,145.224 343.661,164.492 	"/>
	<path fill="#666666" d="M375.91,152.318c-0.714-3.717-2.722-5.496-5.977-5.496c-3.112,0-5.555,2.04-6.282,5.496H375.91
		L375.91,152.318z M363.391,153.981c-0.585,4.846,3.249,8.55,7.557,8.55c2.519,0,4.585-0.846,7.042-2.846v2.299
		c-2.242,1.715-4.56,2.508-7.303,2.508c-5.463,0-9.451-4.197-9.451-10.068c0-5.562,3.664-9.605,8.698-9.605
		c4.027,0,8.4,2.834,8.4,9.162H363.391"/>
	<polyline fill="#666666" points="393.14,164.142 391.105,164.142 391.105,135.4 393.14,135.4 393.14,164.142 	"/>
	<path fill="#666666" d="M415.091,146.822c-4.307,0-7.503,3.312-7.503,7.86c0,4.509,3.196,7.849,7.503,7.849
		c4.243,0,7.445-3.34,7.445-7.849C422.536,150.174,419.333,146.822,415.091,146.822L415.091,146.822z M415.091,164.492
		c-5.523,0-9.634-4.197-9.634-9.81c0-5.639,4.111-9.863,9.634-9.863c5.522,0,9.595,4.225,9.595,9.863
		C424.686,160.295,420.613,164.492,415.091,164.492"/>
	<path fill="#666666" d="M439.596,161.101c1.949,1.053,3.346,1.431,5.223,1.431c4.568,0,7.602-3.131,7.602-7.757
		c0-4.64-3.3-7.952-7.861-7.952c-1.677,0-2.988,0.324-4.963,1.365V161.101L439.596,161.101z M439.596,146.276
		c2.164-1.053,3.723-1.457,5.691-1.457c5.406,0,9.368,4.12,9.368,9.798c0,5.535-4.132,9.875-9.452,9.875
		c-1.884,0-3.442-0.351-5.607-1.417v10.745h-2.001v-28.597h2.001V146.276"/>
	<path fill="#666666" d="M469.376,148.537h0.079c1.715-2.652,3.48-3.718,6.028-3.718c2.948,0,4.91,1.482,6.107,4.562
		c1.896-3.158,3.844-4.562,6.573-4.562c3.975,0,6.574,3.055,6.574,7.681v11.642h-2.025v-10.771c0-3.782-1.599-6.549-4.887-6.549
		c-2.364,0-3.871,1.246-5.743,4.404v12.915h-2.025v-10.798c0-4.678-2.327-6.521-4.991-6.521c-2.313,0-3.896,1.142-5.69,4.026v13.293
		h-2.001v-18.918h2.001V148.537"/>
	<path fill="#666666" d="M522.076,152.318c-0.701-3.717-2.727-5.496-6.004-5.496c-3.065,0-5.533,2.04-6.262,5.496H522.076
		L522.076,152.318z M509.577,153.981c-0.597,4.846,3.246,8.55,7.534,8.55c2.523,0,4.602-0.846,7.018-2.846v2.299
		c-2.208,1.715-4.534,2.508-7.264,2.508c-5.483,0-9.446-4.197-9.446-10.068c0-5.562,3.664-9.605,8.653-9.605
		c4.055,0,8.422,2.834,8.422,9.162H509.577"/>
	<path fill="#666666" d="M538.992,148.484h0.052c1.769-2.649,3.497-3.665,6.265-3.665c4.027,0,7.027,2.666,7.027,7.758v11.564
		h-2.038v-10.798c0-4.262-1.82-6.521-5.121-6.521c-2.779,0-4.521,1.299-6.185,4.026v13.293h-2.026v-18.918h2.026V148.484"/>
	<path fill="#666666" d="M569.734,145.224h5.315v1.611h-5.315v11.253c0,3.259,0.053,4.443,2.834,4.443
		c1.116,0,1.74-0.196,3.43-0.936v1.936c-0.364,0.222-1.014,0.403-1.702,0.651c-0.741,0.129-1.546,0.311-2.235,0.311
		c-2.09,0-4.353-1.169-4.353-4.039v-13.618h-5.093v-1.611h5.093v-4.521l1.378-1.768h0.648V145.224"/>
	<path fill="#666666" d="M613.055,148.004c-2.185-0.936-3.313-1.182-4.926-1.182c-4.209,0-7.12,3.196-7.12,7.912
		c0,4.768,2.847,7.797,7.315,7.797c1.716,0,2.988-0.246,5.094-1.105v2.104c-2.157,0.729-3.51,0.962-5.289,0.962
		c-5.521,0-9.263-3.82-9.263-9.55c0-5.964,3.806-10.123,9.173-10.123c1.663,0,2.95,0.274,5.016,0.924V148.004"/>
	<path fill="#666666" d="M634.519,146.822c-4.301,0-7.495,3.312-7.495,7.86c0,4.509,3.194,7.849,7.495,7.849
		c4.261,0,7.457-3.34,7.457-7.849C641.976,150.174,638.779,146.822,634.519,146.822L634.519,146.822z M634.519,164.492
		c-5.549,0-9.666-4.197-9.666-9.81c0-5.639,4.117-9.863,9.666-9.863c5.496,0,9.59,4.225,9.59,9.863
		C644.108,160.295,640.015,164.492,634.519,164.492"/>
	<path fill="#666666" d="M668.887,148.939c-1.807-1.623-2.743-2.117-3.808-2.117c-1.847,0-4.002,1.91-6.056,5.443v11.876h-2.026
		v-18.918h2.026v4.95h0.09c2.223-3.523,4.497-5.355,6.614-5.355c1.288,0,2.496,0.599,4.313,2.249L668.887,148.939"/>
	<path fill="#666666" d="M682.529,161.101c1.947,1.053,3.339,1.431,5.211,1.431c4.547,0,7.611-3.131,7.611-7.757
		c0-4.64-3.313-7.952-7.848-7.952c-1.715,0-2.988,0.324-4.975,1.365V161.101L682.529,161.101z M682.529,146.276
		c2.144-1.053,3.69-1.457,5.678-1.457c5.404,0,9.352,4.12,9.352,9.798c0,5.535-4.156,9.875-9.444,9.875
		c-1.896,0-3.442-0.351-5.586-1.417v10.745h-2.016v-28.597h2.016V146.276"/>
	<path fill="#666666" d="M718.323,146.822c-4.312,0-7.51,3.312-7.51,7.86c0,4.509,3.197,7.849,7.51,7.849
		c4.264,0,7.458-3.34,7.458-7.849C725.781,150.174,722.587,146.822,718.323,146.822L718.323,146.822z M718.323,164.492
		c-5.509,0-9.627-4.197-9.627-9.81c0-5.639,4.118-9.863,9.627-9.863c5.536,0,9.628,4.225,9.628,9.863
		C727.951,160.295,723.859,164.492,718.323,164.492"/>
	<path fill="#666666" d="M752.718,148.939c-1.808-1.623-2.757-2.117-3.809-2.117c-1.869,0-4.027,1.91-6.053,5.443v11.876h-2.028
		v-18.918h2.028v4.95h0.102c2.21-3.523,4.484-5.355,6.603-5.355c1.298,0,2.454,0.599,4.313,2.249L752.718,148.939"/>
	<path fill="#666666" d="M774.221,154.488c-4.938-0.222-9.004,1.936-9.004,5.197c0,1.793,1.586,3.144,3.756,3.144
		c1.817,0,3.273-0.676,5.248-2.443V154.488L774.221,154.488z M779.418,162.531l-0.365,0.259c-1.882,1.417-2.677,1.702-3.505,1.702
		c-0.885,0-1.145-0.467-1.327-2.339c-2.105,1.638-3.923,2.339-5.924,2.339c-2.859,0-5.121-2.157-5.121-4.807
		c0-4.911,5.523-6.641,11.045-6.9v-2.39c0-2.521-1.39-3.873-4.209-3.873c-2.001,0-3.523,0.715-5.784,2.391v-2.078
		c2.314-1.417,4.069-2.016,6.147-2.016c2.364,0,5.886,0.976,5.886,4.939v11.785c0,0.754,0.115,0.988,0.455,0.988
		c0.455,0,1.676-0.884,2.702-1.703V162.531"/>
	<path fill="#666666" d="M794.386,145.224h5.352v1.611h-5.352v11.253c0,3.259,0.064,4.443,2.858,4.443
		c1.116,0,1.768-0.196,3.431-0.936v1.936c-0.389,0.222-1.015,0.403-1.716,0.651c-0.727,0.129-1.508,0.311-2.207,0.311
		c-2.12,0-4.367-1.169-4.367-4.039v-13.618h-5.106v-1.611h5.106v-4.521l1.39-1.768h0.611V145.224"/>
	<path fill="#666666" d="M813.355,164.142h-2.001v-18.918h2.001V164.142L813.355,164.142z M813.355,138.831h-2.001V135.4h2.001
		V138.831"/>
	<path fill="#666666" d="M836.145,146.822c-4.288,0-7.482,3.312-7.482,7.86c0,4.509,3.194,7.849,7.482,7.849
		c4.275,0,7.472-3.34,7.472-7.849C843.617,150.174,840.421,146.822,836.145,146.822L836.145,146.822z M836.145,164.492
		c-5.509,0-9.641-4.197-9.641-9.81c0-5.639,4.132-9.863,9.641-9.863c5.522,0,9.603,4.225,9.603,9.863
		C845.748,160.295,841.667,164.492,836.145,164.492"/>
	<path fill="#666666" d="M860.624,148.484h0.077c1.77-2.649,3.51-3.665,6.251-3.665c4.04,0,7.056,2.666,7.056,7.758v11.564h-2.052
		v-10.798c0-4.262-1.821-6.521-5.147-6.521c-2.728,0-4.521,1.299-6.185,4.026v13.293h-2.026v-18.918h2.026V148.484"/>
</g>
</svg>
