<?xml version="1.0" encoding="utf-8"?>
<!-- Generator: Adobe Illustrator 19.1.0, SVG Export Plug-In . SVG Version: 6.00 Build 0)  -->
<svg version="1.1" id="Layer_1" xmlns="http://www.w3.org/2000/svg" xmlns:xlink="http://www.w3.org/1999/xlink" x="0px" y="0px"
	 viewBox="0 197 612 400" style="enable-background:new 0 197 612 400;" xml:space="preserve">
<style type="text/css">
	.st0{fill:none;stroke:#00AEEF;stroke-width:2.5;stroke-miterlimit:10;}
	.st1{fill:none;stroke:#83D4F2;stroke-width:2.5;stroke-miterlimit:10;}
	.st2{fill:#00AEEF;}
	.st3{fill:#83D4F2;}
	.st4{enable-background:new    ;}
	.st5{fill:#939598;}
</style>
<path class="st0" d="M263.4,317.5c-26.9,8.7-48.9,28.3-60.9,53.5"/>
<path class="st1" d="M284.9,306.6c-10.2,3.2-19.8,8-28.3,14.1"/>
<path class="st1" d="M261.4,320.8c-14.3-7.6-30.6-11.9-47.9-11.9c-4.2,0-8.3,0.3-12.3,0.7"/>
<path class="st0" d="M204.6,306.6c-3.2,10-5,20.6-5,31.6c0,11.4,1.9,22.5,5.4,32.7"/>
<path class="st1" d="M210.1,368.2c-2.9-0.3-5.9-0.4-8.9-0.4c-16.5,0-32.1,3.9-45.9,10.9"/>
<path class="st0" d="M208.5,364.6c-13.5,11.9-23.7,27.4-29.4,44.9"/>
<path class="st1" d="M205.3,362.1c-0.2,2.4-0.2,4.8-0.2,7.2c0,11.4,1.9,22.5,5.4,32.7c0.7,2,1.4,4.1,2.3,6"/>
<g>
	<path class="st2" d="M265.9,363.8v20.5h-4.8v-20.2c0-5.9-1.6-8.4-5.3-8.4c-3.9,0-6.5,3.2-6.5,8.8v19.9h-4.8V352h3.6l0.6,3.8
		c1.7-2.8,4.4-4.6,8.3-4.6C262.5,351.1,265.9,354.9,265.9,363.8z"/>
	<path class="st2" d="M294.8,374.2c-0.5,6.8-4.6,10.7-11.5,10.7c-6.6,0-10.8-4.3-10.8-11.9v-10.2c0-7.5,4.3-11.8,10.9-11.8
		c6.7,0,11,4.3,11,11.8v7.2h-17v3c0,4.9,2.2,7.2,6,7.2c4.1,0,6-1.8,6.6-6H294.8z M277.4,362.8v3.3h12.1v-3.3c0-4.9-2.3-7.2-6.2-7.2
		C279.6,355.7,277.4,358,277.4,362.8z"/>
	<path class="st2" d="M300.3,373v-9.9c0-7.8,4.4-12,11.2-12s11.1,4.3,11.1,12v9.9c0,7.8-4.3,12-11.1,12S300.3,380.8,300.3,373z
		 M317.7,373v-9.9c0-5.1-2.3-7.3-6.2-7.3s-6.2,2.2-6.2,7.3v9.9c0,5.1,2.3,7.3,6.2,7.3S317.7,378.1,317.7,373z"/>
	<path class="st2" d="M328.7,373.2v-10.4c0-7.5,4.2-11.7,10.7-11.7c6.7,0,10.7,4.3,11,11.7h-4.9c-0.1-4.7-2.3-7-6-7
		c-3.6,0-5.8,2.3-5.8,7v10.4c0,4.8,2.2,7,5.8,7c3.8,0,6-2.2,6.2-7h4.9c-0.2,7.5-4.4,11.8-11,11.8C332.9,385,328.7,380.7,328.7,373.2
		z"/>
	<path class="st2" d="M376.5,362.3v22h-4l-0.4-3.1c-1.4,2.2-3.8,3.9-7.4,3.9c-5.9,0-10.1-3.8-10.1-10c0-6.4,4.4-9.9,11.5-9.9h5.5
		v-2.8c0-4.3-1.8-6.6-5.5-6.6c-3.1,0-5.4,1.7-5.7,5h-4.9c0.2-5.9,4.4-9.7,10.7-9.7C372.8,351.1,376.5,355.3,376.5,362.3z
		 M371.6,369.5H366c-4.2,0-6.5,2-6.5,5.6s2.4,5.5,6.1,5.5s6-2.3,6-5.7V369.5z"/>
	<path class="st2" d="M405.5,363.8v20.5h-4.8v-20.2c0-5.9-1.6-8.4-5.3-8.4c-3.9,0-6.5,3.2-6.5,8.8v19.9h-4.8V352h3.6l0.6,3.8
		c1.7-2.8,4.4-4.6,8.3-4.6C402.1,351.1,405.5,354.9,405.5,363.8z"/>
	<path class="st2" d="M433.9,339.7v44.6h-3.6l-0.5-3c-1.6,2.2-4.4,3.8-7.5,3.8c-6,0-10.2-4.4-10.2-12.5v-9.1c0-8,3.9-12.3,10.2-12.3
		c2.6,0,5.1,1.1,6.8,3.1v-14.5L433.9,339.7L433.9,339.7z M429.1,363.4c0-4.7-2.3-7.8-6-7.8c-4.1,0-6.2,2.3-6.2,7.8v9.1
		c0,5.5,2.3,8,6.2,8c3.4,0,6-2.5,6-7.9V363.4z"/>
	<path class="st2" d="M440.7,373v-9.9c0-7.8,4.4-12,11.2-12c6.8,0,11.1,4.3,11.1,12v9.9c0,7.8-4.3,12-11.1,12S440.7,380.8,440.7,373
		z M458.1,373v-9.9c0-5.1-2.3-7.3-6.2-7.3s-6.2,2.2-6.2,7.3v9.9c0,5.1,2.3,7.3,6.2,7.3S458.1,378.1,458.1,373z"/>
</g>
<circle class="st2" cx="179.7" cy="406.1" r="7.3"/>
<circle class="st3" cx="284.9" cy="306.5" r="4.6"/>
<circle class="st3" cx="157.5" cy="377.8" r="8.5"/>
<circle class="st2" cx="203.9" cy="308.9" r="8.7"/>
<circle class="st3" cx="257.7" cy="319.7" r="13.2"/>
<circle class="st3" cx="211.7" cy="406.1" r="4"/>
<circle class="st2" cx="203.9" cy="368.2" r="16.9"/>
<g class="st4">
	<path class="st5" d="M310.9,317.2c0,4-1.9,6-5.5,6h-2.9v7.3h-1.7v-19.2h4.6C308.9,311.3,310.9,313.4,310.9,317.2z M309.2,317.2
		c0-2.9-1.2-4.3-3.8-4.3h-2.9v8.7h2.9C308,321.6,309.2,320.2,309.2,317.2z"/>
	<path class="st5" d="M313.4,324.5v-7.3c0-3.9,2.1-6.3,5.5-6.3c3.5,0,5.5,2.4,5.5,6.3v7.3c0,3.9-2.1,6.3-5.5,6.3
		C315.5,330.8,313.4,328.4,313.4,324.5z M322.7,324.5v-7.3c0-3-1.3-4.7-3.8-4.7c-2.5,0-3.8,1.7-3.8,4.7v7.3c0,3,1.3,4.7,3.8,4.7
		C321.4,329.2,322.7,327.5,322.7,324.5z"/>
	<path class="st5" d="M345.3,311.3l-4.3,19.2h-1.9l-2.3-10.5c-0.4-1.5-0.8-4.5-0.9-6h-0.1c-0.1,1.5-0.6,4.5-0.9,6l-2.3,10.5h-1.9
		l-4.3-19.2h1.8l2.4,11.9c0.3,1.4,0.8,4.1,0.9,4.9h0.1c0.2-0.8,0.6-3.2,1-5.2l2.3-11.3h1.9l2.3,11.3c0.4,1.9,0.8,4.3,1,5.2h0.1
		c0.1-0.8,0.7-3.5,0.9-4.9l2.4-11.9H345.3z"/>
	<path class="st5" d="M356.9,328.9v1.6h-9.2v-19.2h8.9v1.6h-7.2v7.1h6.8v1.6h-6.8v7.4H356.9z"/>
	<path class="st5" d="M364,323h-2.1v7.5h-1.7v-19.2h4.4c3.5,0,5.5,2.1,5.5,5.6c0,3.3-1.6,5.5-4.2,6l4.7,7.6h-2L364,323z
		 M361.9,321.4h2.7c2.5,0,3.8-1.6,3.8-4.4c0-2.7-1.3-4.1-3.8-4.1h-2.7V321.4z"/>
	<path class="st5" d="M382.7,328.9v1.6h-9.2v-19.2h8.9v1.6h-7.2v7.1h6.8v1.6h-6.8v7.4H382.7z"/>
	<path class="st5" d="M385.9,311.3h4.3c3.6,0,5.7,2.1,5.7,5.6v8c0,3.5-2.1,5.6-5.7,5.6h-4.3V311.3z M390.2,328.8c2.6,0,4-1.4,4-4.1
		V317c0-2.7-1.4-4.1-4-4.1h-2.6v16H390.2z"/>
	<path class="st5" d="M416.3,325.2c0,3.4-2.1,5.2-5.5,5.2h-4.9v-19.2h4.5c3.2,0,5.1,1.8,5.1,5c0,2.4-1,3.8-2.5,4.3
		C415,321,416.3,322.6,416.3,325.2z M407.6,312.9v7h2.9c2.2,0,3.3-1.2,3.3-3.6c0-2.3-1.1-3.4-3.4-3.4H407.6z M414.5,325.2
		c0-2.5-1.6-3.8-4-3.8h-2.9v7.5h3.2C413.3,328.9,414.5,327.7,414.5,325.2z"/>
	<path class="st5" d="M421.7,323.6l-4.8-12.3h1.8l2.7,7.4c0.4,1,0.7,2,1.1,3l1.1-3l2.7-7.4h1.8l-4.8,12.3v6.9h-1.7V323.6z"/>
</g>
</svg>
